<?xml version="1.0" encoding="UTF-8" standalone="no"?>
<!-- Created with Inkscape (http://www.inkscape.org/) -->

<svg
   xmlns:dc="http://purl.org/dc/elements/1.1/"
   xmlns:cc="http://creativecommons.org/ns#"
   xmlns:rdf="http://www.w3.org/1999/02/22-rdf-syntax-ns#"
   xmlns:svg="http://www.w3.org/2000/svg"
   xmlns="http://www.w3.org/2000/svg"
   xmlns:sodipodi="http://sodipodi.sourceforge.net/DTD/sodipodi-0.dtd"
   xmlns:inkscape="http://www.inkscape.org/namespaces/inkscape"
   width="134.15132"
   height="199.31599"
   id="svg8106"
   version="1.1"
   inkscape:version="0.48.2 r9819"
   sodipodi:docname="New document 19">
  <defs
     id="defs8108" />
  <sodipodi:namedview
     id="base"
     pagecolor="#ffffff"
     bordercolor="#666666"
     borderopacity="1.0"
     inkscape:pageopacity="0.0"
     inkscape:pageshadow="2"
     inkscape:zoom="1"
     inkscape:cx="-26.186946"
     inkscape:cy="124.81141"
     inkscape:document-units="px"
     inkscape:current-layer="layer1"
     showgrid="false"
     fit-margin-top="0"
     fit-margin-left="0"
     fit-margin-right="0"
     fit-margin-bottom="0"
     inkscape:window-width="1680"
     inkscape:window-height="988"
     inkscape:window-x="-8"
     inkscape:window-y="-8"
     inkscape:window-maximized="1" />
  <metadata
     id="metadata8111">
    <rdf:RDF>
      <cc:Work
         rdf:about="">
        <dc:format>image/svg+xml</dc:format>
        <dc:type
           rdf:resource="http://purl.org/dc/dcmitype/StillImage" />
        <dc:title></dc:title>
      </cc:Work>
    </rdf:RDF>
  </metadata>
  <g
     inkscape:label="Layer 1"
     inkscape:groupmode="layer"
     id="layer1"
     transform="translate(-278.63792,-252.70419)">
    <path
       style="fill:#333333;fill-opacity:1;stroke:none"
       d="m 359.37178,252.70687 c -11.8116,0.11002 -23.4767,3.47228 -34.189,8.49708 -7.716,3.61937 -15.1695,8.26312 -20.4064,14.98697 -4.3169,5.54261 -6.9168,12.23289 -8.6309,19.04594 -1.3123,5.21561 -2.1478,10.55711 -3.8582,15.65603 -0.3586,1.06917 -0.7505,2.13486 -1.0036,3.2338 -0.2527,1.09893 -0.3664,2.26411 -0.1339,3.3676 0.2716,1.28877 0.9771,2.42335 1.6281,3.56833 0.651,1.14493 1.2656,2.36376 1.3158,3.67984 0.045,1.18397 -0.362,2.34425 -0.9589,3.3676 -0.5972,1.02341 -1.3738,1.93815 -2.0964,2.87697 -3.3239,4.31691 -5.7191,9.29175 -9.1885,13.49273 -0.9855,1.19359 -2.063,2.35756 -2.6985,3.76904 -0.3178,0.70575 -0.5245,1.47858 -0.513,2.25251 0.012,0.77387 0.2419,1.54977 0.7137,2.1633 0.4445,0.57784 1.0804,0.99032 1.7619,1.24891 0.6817,0.25853 1.4157,0.37108 2.141,0.44604 1.4502,0.15004 2.9554,0.15121 4.2597,0.80287 0.9275,0.46344 1.6961,1.24888 2.1409,2.1856 0.4447,0.93678 0.5661,2.01741 0.3569,3.03308 -0.139,0.67557 -0.4067,1.31592 -0.6468,1.96258 -0.2399,0.64666 -0.4483,1.3179 -0.4237,2.00718 0.025,0.70888 0.2907,1.39322 0.7136,1.96258 0.4233,0.56931 0.9999,1.03069 1.6281,1.36043 0.2742,0.14412 0.5606,0.27196 0.7806,0.49064 0.1096,0.10934 0.2007,0.23069 0.2453,0.37914 0.044,0.14844 0.043,0.3054 -0.022,0.44604 -0.073,0.15738 -0.2103,0.28624 -0.3568,0.37913 -0.1465,0.0928 -0.3174,0.17347 -0.4461,0.28993 -0.1475,0.13348 -0.2434,0.30389 -0.3122,0.49064 -0.068,0.18669 -0.1044,0.38303 -0.1338,0.57986 -0.1276,0.85526 -0.1403,1.74218 0.045,2.58703 0.1843,0.84485 0.5613,1.65211 1.1373,2.29711 0.6657,0.74548 1.5764,1.23806 2.4533,1.71726 0.8771,0.4792 1.7617,0.9752 2.4309,1.71726 0.6816,0.75554 1.1075,1.74803 1.0928,2.76545 -0.017,1.18079 -0.6006,2.28583 -1.2042,3.3007 -0.6038,1.01481 -1.2727,2.01638 -1.5389,3.16689 -0.3658,1.58008 0.1023,3.29902 1.0481,4.61652 0.9459,1.31745 2.3358,2.26087 3.836,2.87696 1.8739,0.76944 3.9294,1.0437 5.9547,1.0705 2.0254,0.0268 4.0479,-0.18477 6.0661,-0.35683 2.0183,-0.17212 4.0497,-0.3031 6.0662,-0.11151 2.0164,0.19153 4.03,0.72097 5.7539,1.78416 1.4959,0.92238 2.7635,2.28963 3.2784,3.96977 0.452,1.47477 0.3006,3.06622 0.089,4.59422 -0.2113,1.52799 -0.4763,3.07653 -0.2007,4.59422 0.2439,1.34255 0.8946,2.58123 1.6727,3.70213 0.778,1.12091 1.6817,2.15718 2.5201,3.2338 3.4004,4.36723 6.943,25.70279 7.8726,33.76528 24.2385,-7.80378 45.048,-23.17213 59.6802,-43.33286 -1.6259,-3.30004 -3.3907,-7.05454 -3.992,-8.8316 -2.6545,-7.84573 -3.5377,-16.29281 -2.4978,-24.50994 0.3688,-2.91768 0.9678,-5.78978 1.8065,-8.60859 5.8173,-8.68671 10.425,-18.19287 13.6265,-28.14517 2.9017,-9.01974 4.6446,-18.44779 4.7503,-27.92215 0.1099,-9.86915 -2.34016,-19.29372 -4.8593,-26.55637 -2.51914,-7.26265 -4.60915,-11.15668 -11.6889,-17.91389 -7.07975,-6.75721 -21.885,-13.11856 -34.5012,-13.47043 -0.7885,-0.022 -1.5765,-0.0296 -2.364,-0.0223 z"
       id="path7144"
       inkscape:connector-curvature="0"
       sodipodi:nodetypes="csscccccccccccccccccccccccccccccccccccccsccccccccccccccczzccc" />
  </g>
</svg>
