<?xml version="1.0" encoding="UTF-8" standalone="no"?>
<!-- Created with Inkscape (http://www.inkscape.org/) -->

<svg
   xmlns:dc="http://purl.org/dc/elements/1.1/"
   xmlns:cc="http://creativecommons.org/ns#"
   xmlns:rdf="http://www.w3.org/1999/02/22-rdf-syntax-ns#"
   xmlns:svg="http://www.w3.org/2000/svg"
   xmlns="http://www.w3.org/2000/svg"
   xmlns:sodipodi="http://sodipodi.sourceforge.net/DTD/sodipodi-0.dtd"
   xmlns:inkscape="http://www.inkscape.org/namespaces/inkscape"
   width="744.09448819"
   height="1052.3622047"
   id="svg4112"
   version="1.1"
   inkscape:version="0.47 r22583"
   sodipodi:docname="ListenToOriginal.svg"
   inkscape:export-filename="C:\Users\Olson\Desktop\ListenToOriginalRecording.png"
   inkscape:export-xdpi="78.545586"
   inkscape:export-ydpi="78.545586">
  <defs
     id="defs4114">
    <inkscape:perspective
       sodipodi:type="inkscape:persp3d"
       inkscape:vp_x="0 : 526.18109 : 1"
       inkscape:vp_y="0 : 1000 : 0"
       inkscape:vp_z="744.09448 : 526.18109 : 1"
       inkscape:persp3d-origin="372.04724 : 350.78739 : 1"
       id="perspective4120" />
    <inkscape:perspective
       id="perspective4096"
       inkscape:persp3d-origin="0.5 : 0.33333333 : 1"
       inkscape:vp_z="1 : 0.5 : 1"
       inkscape:vp_y="0 : 1000 : 0"
       inkscape:vp_x="0 : 0.5 : 1"
       sodipodi:type="inkscape:persp3d" />
    <filter
       id="filter8579"
       inkscape:label="Drop shadow"
       width="1.5"
       height="1.5"
       x="-.25"
       y="-.25">
      <feGaussianBlur
         id="feGaussianBlur8581"
         in="SourceAlpha"
         stdDeviation="1.500000"
         result="blur" />
      <feColorMatrix
         id="feColorMatrix8583"
         result="bluralpha"
         type="matrix"
         values="1 0 0 0 0 0 1 0 0 0 0 0 1 0 0 0 0 0 0.400000 0 " />
      <feOffset
         id="feOffset8585"
         in="bluralpha"
         dx="4.000000"
         dy="4.000000"
         result="offsetBlur" />
      <feMerge
         id="feMerge8587">
        <feMergeNode
           id="feMergeNode8589"
           in="offsetBlur" />
        <feMergeNode
           id="feMergeNode8591"
           in="SourceGraphic" />
      </feMerge>
    </filter>
  </defs>
  <sodipodi:namedview
     id="base"
     pagecolor="#ffffff"
     bordercolor="#666666"
     borderopacity="1.0"
     inkscape:pageopacity="0.0"
     inkscape:pageshadow="2"
     inkscape:zoom="8.62"
     inkscape:cx="378.6896"
     inkscape:cy="332.70982"
     inkscape:document-units="px"
     inkscape:current-layer="layer1"
     showgrid="false"
     inkscape:window-width="1440"
     inkscape:window-height="838"
     inkscape:window-x="-8"
     inkscape:window-y="-8"
     inkscape:window-maximized="1" />
  <metadata
     id="metadata4117">
    <rdf:RDF>
      <cc:Work
         rdf:about="">
        <dc:format>image/svg+xml</dc:format>
        <dc:type
           rdf:resource="http://purl.org/dc/dcmitype/StillImage" />
        <dc:title></dc:title>
      </cc:Work>
    </rdf:RDF>
  </metadata>
  <g
     inkscape:label="Layer 1"
     inkscape:groupmode="layer"
     id="layer1">
    <g
       id="g8569"
       transform="matrix(0.98727365,0,0,0.98728499,4.5087395,9.431493)"
       style="filter:url(#filter8579)"
       inkscape:export-filename="C:\Users\Olson\Desktop\Ear60.png"
       inkscape:export-xdpi="81.596199"
       inkscape:export-ydpi="81.596199">
      <path
         id="path8057"
         d="m 361.02643,738.45475 c -2.08356,-0.35005 -3.91558,-2.07361 -4.6089,-4.33603 -0.20284,-0.66192 -0.21331,-1.51255 -0.21331,-17.34339 l 0,-16.64733 0.25702,-0.81688 c 0.62388,-1.98293 2.23172,-3.55064 4.15539,-4.05169 0.59806,-0.15578 2.74881,-0.17784 17.33933,-0.17784 18.21692,0 17.30016,-0.0331 18.60748,0.67088 0.81003,0.43615 1.91906,1.56945 2.36116,2.41282 0.76746,1.46403 0.7251,0.37157 0.7251,18.70097 l 0,16.6315 -0.29788,0.89053 c -0.36732,1.0981 -0.8034,1.79379 -1.59057,2.53748 -0.71284,0.67348 -1.40705,1.0946 -2.28788,1.38789 -0.60555,0.20163 -1.48315,0.21333 -17.22738,0.22971 -9.55456,0.01 -16.85658,-0.0276 -17.21956,-0.0886 l 0,0 z"
         style="fill:#ffffff;fill-opacity:1;fill-rule:nonzero;stroke:none" />
      <g
         inkscape:export-ydpi="88.854675"
         inkscape:export-xdpi="88.854675"
         inkscape:export-filename="C:\Users\Olson\Desktop\ListenToOriginalRecording.png"
         id="g10163-0-7"
         style="stroke:#4d7dc5;stroke-width:0.49191791;stroke-miterlimit:4;stroke-opacity:1;stroke-dasharray:none"
         transform="matrix(2.0054016,0,0,2.0611073,340.69466,-2057.9511)">
        <rect
           inkscape:export-ydpi="78.545586"
           inkscape:export-xdpi="78.545586"
           inkscape:export-filename="C:\Projects\SayMore\src\SayMore\Resources\ListenToOriginalRecording.png"
           ry="3.5772657"
           y="1335.0547"
           x="7.0728707"
           height="22.375692"
           width="22.99724"
           id="rect9886-03-3"
           style="fill:#0c0c0c;fill-opacity:0;fill-rule:nonzero;stroke:#4d7dc5;stroke-width:1.22967124;stroke-miterlimit:4;stroke-opacity:1;stroke-dasharray:none" />
      </g>
      <path
         inkscape:export-ydpi="88.854675"
         inkscape:export-xdpi="88.854675"
         inkscape:export-filename="C:\Users\Olson\Desktop\ListenToOriginalRecording.png"
         d="m 386.13261,700.49942 c 4.02291,0.5801 7.01189,4.18232 7.93768,7.98025 1.46678,5.00092 0.23719,10.8308 -3.57607,14.49293 -1.92782,2.16413 -2.4944,5.2676 -3.30273,8.04177 -0.76065,1.76688 -3.32718,2.24734 -5.04647,1.7404 -2.32994,-0.58282 -4.88736,-2.3885 -6.45056,-4.20467 -1.03488,-1.25202 -0.34346,-2.33515 -0.14186,-3.82892 l 0.0234,-0.0255 c -0.0727,1.22602 0.23276,2.60221 0.98176,3.43567 1.79601,2.13304 4.5434,3.53155 7.36467,3.4267 1.72471,-0.54499 2.04964,-2.51619 2.62503,-3.98648 1.23901,-3.1716 3.19507,-5.77127 5.06346,-8.54252 2.39539,-4.76177 2.16685,-9.94133 -1.27227,-14.10608 -1.2267,-1.40953 -2.49972,-2.28883 -4.38412,-2.51107 -3.96611,-0.47545 -7.92682,1.2427 -8.9382,4.94703 -0.0255,0.19539 -0.0662,0.38459 -0.0928,0.57959 l -0.46519,-0.31033 c 0.0717,-0.41958 0.39065,-0.83636 0.46606,-1.24889 0.71391,-4.29619 5.4242,-6.40608 9.20831,-5.87987 z"
         id="path9197-6-7"
         inkscape:connector-curvature="0"
         style="fill:#4d7dc5;fill-opacity:1;fill-rule:evenodd;stroke-width:1px" />
      <path
         inkscape:export-ydpi="88.854675"
         inkscape:export-xdpi="88.854675"
         inkscape:export-filename="C:\Users\Olson\Desktop\ListenToOriginalRecording.png"
         d="m 385.82563,704.22038 c 1.51196,0.008 2.47309,1.39926 3.12198,2.5938 0.74753,1.32702 1.32006,2.74539 1.79737,4.18958 -1.31423,-1.39694 -1.32157,-1.26943 -1.70216,-2.01305 -0.59365,-1.38247 -1.36106,-1.95791 -2.56339,-2.91148 -0.951,-0.38329 -3.01411,1.02749 -2.25522,0.28657 -1.66875,1.64082 -2.40774,3.27299 -3.14294,5.59146 -0.32111,1.73549 -0.27058,3.06176 0.46774,4.49689 0.69877,1.23536 1.48809,2.73099 0.933,4.16631 -0.52866,0.93938 -1.74763,1.44539 -1.88489,2.60422 -0.53007,1.10887 1.20609,2.18498 2.00095,1.28561 3.48382,-2.34927 5.43628,-6.10071 3.44387,-9.90819 -0.19,-0.87323 -0.97526,-2.61246 -1.57067,-3.55264 0.54667,0.4952 2.34487,2.67292 2.80432,3.32356 1.52747,2.67578 0.83964,5.41263 -0.53622,8.12691 -0.92646,1.91725 -2.47139,3.49977 -4.57605,4.10202 -1.24925,0.18894 -2.71264,-1.95828 -2.4895,-3.167 0.0971,-1.20726 0.88903,-2.24333 1.83099,-2.94961 0.64282,-0.99083 -0.004,-2.14768 -0.45957,-3.06914 -0.82956,-1.70085 -2.31372,-3.29441 -2.09807,-5.31878 0.3091,-2.23126 1.97715,-3.03315 3.52198,-4.51565 0.96824,-0.85559 1.86069,-2.75078 3.04973,-3.3088 0.10034,-0.0269 0.20313,-0.045 0.30675,-0.0526 z"
         id="path9199-3-2"
         inkscape:connector-curvature="0"
         style="fill:#4d7dc5;fill-opacity:1;fill-rule:evenodd;stroke-width:1px" />
      <path
         inkscape:export-ydpi="88.854675"
         inkscape:export-xdpi="88.854675"
         inkscape:export-filename="C:\Users\Olson\Desktop\ListenToOriginalRecording.png"
         sodipodi:nodetypes="ccc"
         inkscape:connector-curvature="0"
         id="path3341-7-7-5"
         d="m 364.68633,711.25634 c 3.92721,5.18497 2.01582,10.80174 2.01582,10.80174 l -0.087,-0.0698"
         style="fill:none;stroke:#4d7dc5;stroke-width:1.5;stroke-linecap:square;stroke-linejoin:miter;stroke-miterlimit:4;stroke-opacity:1;stroke-dasharray:none" />
      <path
         inkscape:export-ydpi="88.854675"
         inkscape:export-xdpi="88.854675"
         inkscape:export-filename="C:\Users\Olson\Desktop\ListenToOriginalRecording.png"
         sodipodi:nodetypes="ccc"
         inkscape:connector-curvature="0"
         id="path3341-8-0-9-6"
         d="m 367.39991,707.57138 c 5.54514,8.65562 2.27313,18.52301 2.27313,18.52301 l -0.1253,-0.1146"
         style="fill:none;stroke:#4d7dc5;stroke-width:1.5;stroke-linecap:square;stroke-linejoin:miter;stroke-miterlimit:4;stroke-opacity:1;stroke-dasharray:none" />
      <path
         inkscape:export-ydpi="88.854675"
         inkscape:export-xdpi="88.854675"
         inkscape:export-filename="C:\Users\Olson\Desktop\ListenToOriginalRecording.png"
         sodipodi:nodetypes="ccc"
         inkscape:connector-curvature="0"
         id="path3341-7-7-3-4"
         d="m 362.273,713.54302 c 2.38841,3.09049 1.45374,6.66854 1.45374,6.66854 l -0.053,-0.0387"
         style="fill:none;stroke:#4d7dc5;stroke-width:1.5;stroke-linecap:square;stroke-linejoin:miter;stroke-miterlimit:4;stroke-opacity:1;stroke-dasharray:none" />
    </g>
  </g>
</svg>
