<?xml version="1.0" encoding="UTF-8" standalone="no"?>
<!-- Generator: Adobe Illustrator 12.0.0, SVG Export Plug-In . SVG Version: 6.00 Build 51448)  -->

<svg
   xmlns:dc="http://purl.org/dc/elements/1.1/"
   xmlns:cc="http://creativecommons.org/ns#"
   xmlns:rdf="http://www.w3.org/1999/02/22-rdf-syntax-ns#"
   xmlns:svg="http://www.w3.org/2000/svg"
   xmlns="http://www.w3.org/2000/svg"
   xmlns:sodipodi="http://sodipodi.sourceforge.net/DTD/sodipodi-0.dtd"
   xmlns:inkscape="http://www.inkscape.org/namespaces/inkscape"
   height="84.279999"
   id="Layer_1"
   inkscape:version="0.47pre3 "
   sodipodi:docname="sponge.svg"
   sodipodi:version="0.32"
   style="overflow:visible"
   version="1.0"
   viewBox="0 0 138.03 84.279995"
   width="138.03"
   xml:space="preserve"><metadata
   id="metadata3"><rdf:RDF><cc:Work
       rdf:about=""><dc:title></dc:title><dc:description /><dc:subject><rdf:Bag><rdf:li>unsorted</rdf:li></rdf:Bag></dc:subject><dc:publisher><cc:Agent
           rdf:about="http://www.openclipart.org"><dc:title>Architetto Francesco Rollandin</dc:title></cc:Agent></dc:publisher><dc:creator><cc:Agent><dc:title>Architetto Francesco Rollandin</dc:title></cc:Agent></dc:creator><dc:rights><cc:Agent><dc:title>Architetto Francesco Rollandin</dc:title></cc:Agent></dc:rights><dc:date /><dc:format>image/svg+xml</dc:format><dc:type
         rdf:resource="http://purl.org/dc/dcmitype/StillImage" /><cc:license
         rdf:resource="http://web.resource.org/cc/PublicDomain" /><dc:language>en</dc:language></cc:Work><cc:License
       rdf:about="http://web.resource.org/cc/PublicDomain"><cc:permits
         rdf:resource="http://web.resource.org/cc/Reproduction" /><cc:permits
         rdf:resource="http://web.resource.org/cc/Distribution" /><cc:permits
         rdf:resource="http://web.resource.org/cc/DerivativeWorks" /></cc:License></rdf:RDF></metadata>
<defs
   id="defs62"><inkscape:perspective
     sodipodi:type="inkscape:persp3d"
     inkscape:vp_x="0 : 135.82001 : 1"
     inkscape:vp_y="0 : 1000 : 0"
     inkscape:vp_z="222.19501 : 135.82001 : 1"
     inkscape:persp3d-origin="111.0975 : 90.546672 : 1"
     id="perspective36" /></defs>
<sodipodi:namedview
   bordercolor="#666666"
   borderopacity="1.0"
   id="base"
   inkscape:current-layer="Layer_1"
   inkscape:cx="-39.501763"
   inkscape:cy="44.538318"
   inkscape:pageopacity="0.0"
   inkscape:pageshadow="2"
   inkscape:window-height="540"
   inkscape:window-width="640"
   inkscape:window-x="1805"
   inkscape:window-y="165"
   inkscape:zoom="0.6957738"
   pagecolor="#ffffff"
   showgrid="false"
   inkscape:window-maximized="0" />









<path
   d="m 45.737377,78.280011 c 3.907,-0.705 7.776,-2.17 11.771,-2.313 3.415,-0.123 7.42,2.334 10.479,0.964 1.45,-0.649 3.095,-1.508 4.688,-1.688 4.066004,-0.456 4.921004,-6.405 6.844004,-9.496 4.517,-7.257 8.39,-3.713 14.257,-5.881 4.159,-1.537 3.659,-6.264 9.761999,-4.771 4.808,1.175 5.072,-2.943 9.091,-5.641 3.418,-2.294 7.541,-2.871 11.005,-4.724 3.627,-1.939 4.911,-4.356 4.211,-8.919 -0.38,-2.479 -0.393,-5.077 -1.531,-7.375 -1.414,-2.855 -0.093,-4.347 -0.479,-7.037 -1.617,-11.280999 -9.652,-12.671998 -18.997,-11.372999 -5.375,0.747 -8.363999,-0.281 -13.348999,-1.930999 -3.019,-0.999 -5.655,-1.62 -8.756,-0.482 -4.576,1.679999 -9.515,1.356 -14.211004,3.470999 -4.933,2.221 -9.388,5.609999 -13.881,8.588999 -4.021,2.666 -11.112,3.663 -13.781,7.343 -2.896,3.992 -8.561,5.437 -13.029,6.789 -3.747,1.133 -8.506,5.274 -11.893,5.768 -4.456,0.648 -4.884,-0.551 -8.8529999,3.037 6.2479999,3.764 0.128,5.893 -0.957,9.256 -0.529,1.639 0.69,2.635 1.597,4.096 0.7899999,1.271 2.5609999,3.195 2.9009999,4.677 0.265,1.152 -1.262,2.687 -1.052,3.855 0.262,1.459 2.197,5.966 2.919,7.521 1.778,3.831 2.695,3.49 5.406,0.771 3.155,-3.166 6.927,0.171 10.623,1.061 0.346,0.083 0.473,1.061 0.957,1.157 1.555,0.312 3.313,-0.637 5.072,-0.482 3.326,0.29 6.547,2.301 9.186,3.758"
   id="path11"
   style="fill:#ffdb00;fill-rule:evenodd" />

<path
   d="m 51.001377,70.663011 c 7.88,-2.566 -2.245,-13.036 0.287,-17.547 0.716,-1.274 6.359,-3.42 7.772,-4.274 4.23,-2.556 8.907,-4.213 13.472,-6.041 8.703004,-3.484 15.877004,-9.274 24.527004,-12.544 4.043999,-1.528 17.527999,-4.837 17.483999,-9.919 -0.087,-9.970999 -27.614999,7.959 -32.153999,10.895 -7.964,5.151 -16.632004,6.659 -24.690004,11.183 -3.111,1.746 -7.426,7.995 -10.526,8.388 -1.744,0.221 -6.723,-4.067 -9.474,-4.531 -4.54,-0.766 -9.327,0.356 -13.755,-1.188 -5.421,-1.893 -3.171,3.646 -0.024,5.237 4.418,2.234 10.027,-0.922 14.028,1.302 7.183,3.992 7.279,4.851 9.426,12.824 0.666,2.478 1.039,5.22 3.627,6.215"
   id="path13"
   style="fill-rule:evenodd" />

<path
   d="m 28.895377,66.808011 c 3.822,-0.734 10.837,-5.86 3.637,-8.004 -4.829,-1.438 -8.452,6.488 -3.637,8.004"
   id="path15"
   style="fill-rule:evenodd" />

<path
   d="m 20.282377,62.951011 c 0.348,-0.991 -0.806,-6.184 -2.775,-3.857 -1.84,2.174 0.896,4.624 2.775,3.857"
   id="path17"
   style="fill-rule:evenodd" />

<path
   d="m 70.140377,58.997011 c 4.175004,-1.239 8.313004,-0.837 7.943004,-5.784 -0.151,-2.032 -0.53,-3.05 -2.392,-3.952 -5.117004,-2.481 -9.431004,8.161 -5.551004,9.736"
   id="path19"
   style="fill-rule:evenodd" />

<path
   d="m 87.175381,55.912011 c 2.723,0.187 7.065,-3.434 4.593,-6.17 -3.032,-3.353 -10.581,4.434 -4.593,6.17"
   id="path21"
   style="fill-rule:evenodd" />

<path
   d="m 106.88838,45.887011 c 1.975,0.06 3.106,-1.407 1.627,-3.182 -2.777,-3.331 -5.712,2.733 -1.627,3.182"
   id="path23"
   style="fill-rule:evenodd" />

<path
   d="m 93.873381,42.031011 c 3.555,0.081 2.651,-4.725 -0.384,-4.436 -2.319,0.221 -2.275,4.008 0.384,4.436"
   id="path25"
   style="fill-rule:evenodd" />

<path
   d="m 42.579377,41.355011 c 2.485,0.334 5.986,-0.426 7.656,-2.506 0.909,-1.132 2.543,-6.942 -0.383,-6.942 -3.671,0 -12.738,6.733 -7.273,9.448"
   id="path27"
   style="fill-rule:evenodd" />



<path
   d="m 117.70138,33.256011 c 2.07,-1.367 1.133,-4.985 -1.436,-5.012 -4.115,-0.042 -2.462,5.791 1.436,5.012"
   id="path31"
   style="fill-rule:evenodd" />

<path
   d="m 64.111377,30.557011 c 6.157,0.463 5.107,-7.73 0.383,-4.916 -2.164,1.289 -2.656,4.106 -0.383,4.916"
   id="path33"
   style="fill-rule:evenodd" />

<path
   d="m 80.188381,23.326011 c 2.206,-0.709 2.539,-4.063 -0.097,-4.82 -3.127,-0.897 -2.508,4.417 0.097,4.82"
   id="path35"
   style="fill-rule:evenodd" />

<path
   d="m 67.174377,21.302011 c 2.867,-1.003 1.046,-5.661 -1.531,-5.109 -3.383,0.724 -0.527,4.87 1.531,5.109"
   id="path37"
   style="fill-rule:evenodd" />

<path
   d="m 88.514381,18.121011 c 3.624,-2.451 -2.695,-3.586 0,0"
   id="path39"
   style="fill-rule:evenodd" />






















  
</svg>