<?xml version="1.0" encoding="UTF-8"?>
<svg width="128" height="128" xmlns="http://www.w3.org/2000/svg">
 <title>ear_bw</title>

 <g>
  <title>Layer 1</title>
  <path fill="#000000" fill-rule="evenodd" stroke-width="1px" id="path9197" d="m67.12307,1.20854c14.595299,2.104642 25.439453,15.173649 28.798264,28.952732c5.321526,18.143587 0.860527,39.294645 -12.974144,52.581007c-6.994209,7.851563 -9.049805,19.111115 -11.982452,29.175941c-2.759682,6.410324 -12.071198,8.153435 -18.308853,6.314232c-8.453114,-2.11451 -17.731548,-8.665573 -23.40292,-15.254753c-3.754583,-4.542381 -1.246084,-8.472038 -0.514666,-13.891495l0.084753,-0.092575c-0.263651,4.448082 0.844467,9.440926 3.56184,12.464775c6.516041,7.738762 16.483685,12.812614 26.719387,12.43222c6.257301,-1.977242 7.436203,-9.128838 9.52375,-14.463112c4.49514,-11.506714 11.591827,-20.938431 18.370445,-30.992691c8.690559,-17.275925 7.861427,-36.067593 -4.615883,-51.177507c-4.450523,-5.11383 -9.069069,-8.303973 -15.905769,-9.110262c-14.389229,-1.724959 -28.758842,4.508592 -32.428204,17.948051c-0.092674,0.708889 -0.240124,1.395308 -0.336853,2.102753l-1.687748,-1.125879c0.260292,-1.522243 1.417316,-3.034332 1.690891,-4.531029c2.590096,-15.586783 19.679253,-23.241539 33.408161,-21.332409z"/>
  <path fill="#000000" fill-rule="evenodd" stroke-width="1px" id="path9199" d="m66.009331,14.708369c5.485451,0.028921 8.972496,5.076564 11.326683,9.410401c2.712067,4.814512 4.789261,9.960434 6.520943,15.200027c-4.768082,-5.068157 -4.794716,-4.605564 -6.175522,-7.303455c-2.153793,-5.015682 -4.937981,-7.103363 -9.300125,-10.562988c-3.450256,-1.390581 -10.93531,3.72776 -8.182034,1.039701c-6.054287,5.952957 -8.735378,11.874571 -11.402702,20.286093c-1.164989,6.296402 -0.981686,11.10817 1.696987,16.314899c2.535175,4.481941 5.398857,9.908157 3.38493,15.115555c-1.917976,3.408119 -6.34045,5.243935 -6.838432,9.448235c-1.923138,4.023026 4.375725,7.927231 7.259533,4.664284c12.639465,-8.523277 19.723061,-22.133705 12.49453,-35.947395c-0.689346,-3.168129 -3.538269,-9.478134 -5.698509,-12.889149c1.983376,1.796589 8.507317,9.697472 10.174255,12.058041c5.541679,9.707867 3.046234,19.637276 -1.94545,29.484818c-3.361221,6.955856 -8.966324,12.697304 -16.602146,14.882317c-4.532318,0.685432 -9.841553,-7.104736 -9.031975,-11.490036c0.352249,-4.379982 3.225414,-8.138924 6.642891,-10.701309c2.332176,-3.594795 -0.015549,-7.791893 -1.667336,-11.13501c-3.00967,-6.170727 -8.394276,-11.952251 -7.611904,-19.296764c1.121426,-8.095127 7.173214,-11.004436 12.777916,-16.382965c3.512798,-3.104156 6.750652,-9.97999 11.064583,-12.004519c0.364037,-0.097425 0.736923,-0.163266 1.112885,-0.190779z"/>
 </g>
</svg>