<?xml version="1.0" encoding="UTF-8" standalone="no"?>
<!-- Created with Inkscape (http://www.inkscape.org/) -->

<svg
   xmlns:dc="http://purl.org/dc/elements/1.1/"
   xmlns:cc="http://creativecommons.org/ns#"
   xmlns:rdf="http://www.w3.org/1999/02/22-rdf-syntax-ns#"
   xmlns:svg="http://www.w3.org/2000/svg"
   xmlns="http://www.w3.org/2000/svg"
   xmlns:xlink="http://www.w3.org/1999/xlink"
   xmlns:sodipodi="http://sodipodi.sourceforge.net/DTD/sodipodi-0.dtd"
   xmlns:inkscape="http://www.inkscape.org/namespaces/inkscape"
   width="744.09448819"
   height="1052.3622047"
   id="svg2"
   version="1.1"
   inkscape:version="0.48.2 r9819"
   sodipodi:docname="speaking2.svg">
  <defs
     id="defs4">
    <linearGradient
       inkscape:collect="always"
       id="linearGradient3285">
      <stop
         style="stop-color:#ffffff;stop-opacity:1;"
         offset="0"
         id="stop3287" />
      <stop
         style="stop-color:#ffffff;stop-opacity:0;"
         offset="1"
         id="stop3289" />
    </linearGradient>
    <linearGradient
       inkscape:collect="always"
       xlink:href="#linearGradient3285"
       id="linearGradient3277"
       x1="283.88025"
       y1="423.06122"
       x2="221.34718"
       y2="190.79555"
       gradientUnits="userSpaceOnUse" />
    <linearGradient
       inkscape:collect="always"
       xlink:href="#linearGradient3285"
       id="linearGradient3339"
       gradientUnits="userSpaceOnUse"
       x1="283.88025"
       y1="423.06122"
       x2="221.34718"
       y2="190.79555" />
  </defs>
  <sodipodi:namedview
     id="base"
     pagecolor="#ffffff"
     bordercolor="#666666"
     borderopacity="1.0"
     inkscape:pageopacity="0.0"
     inkscape:pageshadow="2"
     inkscape:zoom="1.0074671"
     inkscape:cx="500.97363"
     inkscape:cy="776.65497"
     inkscape:document-units="px"
     inkscape:current-layer="layer1"
     showgrid="false"
     inkscape:window-width="1106"
     inkscape:window-height="818"
     inkscape:window-x="517"
     inkscape:window-y="121"
     inkscape:window-maximized="0" />
  <metadata
     id="metadata7">
    <rdf:RDF>
      <cc:Work
         rdf:about="">
        <dc:format>image/svg+xml</dc:format>
        <dc:type
           rdf:resource="http://purl.org/dc/dcmitype/StillImage" />
        <dc:title></dc:title>
      </cc:Work>
    </rdf:RDF>
  </metadata>
  <g
     inkscape:label="Layer 1"
     inkscape:groupmode="layer"
     id="layer1">
    <path
       style="fill:#b2b2b2"
       inkscape:connector-curvature="0"
       d="m 478.67304,311.93059 c 6.51779,-1.86616 8.45722,3.61793 11.2763,6.2134 39.30808,52.54576 26.76001,120.44268 -29.62148,165.20917 -5.58516,2.38812 -9.76078,-2.42387 -13.9788,-4.23998 -2.73429,-1.54441 -2.45874,-4.28288 0.19077,-5.79155 48.19982,-39.40395 59.40193,-97.21929 28.77364,-143.83765 -2.24679,-4.48309 -8.02271,-8.35841 -6.53899,-13.4135 3.17941,-1.48722 6.34822,-3.06738 9.89856,-4.13989 z"
       id="path3034"
       inkscape:export-filename="C:\Projects\SayMore\design\g3324.png"
       inkscape:export-xdpi="16.088352"
       inkscape:export-ydpi="16.088352" />
    <path
       style="fill:#030303"
       inkscape:connector-curvature="0"
       d="m 482.31876,312.53835 c 13.92581,14.76486 22.5632,32.00364 25.65782,49.34253 -0.24375,0.92951 -0.0848,1.88761 0.58289,2.73132 0.68887,1.17976 0.44512,2.48107 0.47691,3.72518 -0.33913,1.64451 -0.18016,3.25327 0.48751,4.82628 0.5617,1.15831 0.61469,2.40242 0.61469,3.61793 -0.0742,4.99789 -0.0954,10.00293 -0.0106,15.00797 0,1.21551 -0.18017,2.43817 -0.50871,3.64653 -0.66767,1.57301 -0.87963,3.16032 -0.61468,4.76908 -2.93565,30.45209 -22.5632,59.61001 -50.9977,83.09079 -4.2922,-1.90191 -10.03633,-4.29718 -12.19833,-6.96415 24.43905,-20.13456 41.08855,-44.44474 46.81148,-70.24214 0.57229,-0.86516 0.72067,-1.81612 0.5299,-2.74562 -0.13777,-3.57503 0.72067,-7.11431 1.35655,-10.64644 1.02801,-5.11228 1.18698,-10.32467 0.0636,-15.42981 -0.20136,-0.91521 -0.30734,-1.84472 -0.30734,-2.76707 -0.14838,-1.02246 -0.45572,-3.07453 -0.61469,-4.09699 -0.38153,-1.001 -0.5511,-2.01631 -0.50871,-3.04592 0.20137,-0.93666 0.0636,-1.88761 -0.54049,-2.73847 -3.87888,-16.22348 -11.8592,-31.8678 -22.70098,-46.54686 0.50871,-3.29617 8.79637,-3.63223 12.42089,-5.53414 z"
       id="path3036"
       inkscape:export-filename="C:\Projects\SayMore\design\g3324.png"
       inkscape:export-xdpi="16.088352"
       inkscape:export-ydpi="16.088352" />
    <path
       style="fill:#b3b3b3"
       inkscape:connector-curvature="0"
       d="m 432.31728,330.48499 c 1.54731,-3.28903 11.81679,-5.4841 13.78803,-3.95398 -4.74792,1.0582 -9.43225,2.28086 -13.78803,3.95398 z"
       id="path3038"
       inkscape:export-filename="C:\Projects\SayMore\design\g3324.png"
       inkscape:export-xdpi="16.088352"
       inkscape:export-ydpi="16.088352" />
    <path
       style="fill:#030303"
       inkscape:connector-curvature="0"
       d="m 432.31728,330.48499 c 4.35578,-1.67312 9.04011,-2.89578 13.78803,-3.95398 10.55563,12.09074 16.32096,25.67584 19.75472,39.4254 -0.66768,0.99386 -0.84785,2.30947 0.62528,3.03162 0.10598,0.89376 0.22256,1.78752 0.33914,2.68127 0.15897,1.12256 0.4981,3.37483 0.65707,4.49739 0.19077,0.8437 0.39213,1.69456 0.60409,2.54542 -0.33913,4.64753 -0.34973,9.30937 -0.22256,13.96405 -0.10598,0.47906 -0.32854,1.44432 -0.44511,1.92337 -1.78047,1.80181 -1.89705,3.49638 -0.36034,5.09799 -4.15442,23.78108 -19.09764,46.66126 -41.95758,64.94395 -4.50416,-1.14401 -8.44663,-3.90393 -11.68962,-6.3707 20.9205,-18.06104 36.41481,-39.56841 38.56621,-62.75603 0.29675,-2.01632 0.69947,-4.00403 0.73127,-6.0275 0.10598,-2.98157 0.11658,-5.96315 -0.12718,-8.93757 -0.10598,-2.05921 0.053,-4.09698 -0.36033,-6.1276 -1.85466,-15.45841 -9.87736,-30.13033 -19.90309,-43.93708 z"
       id="path3040"
       inkscape:export-filename="C:\Projects\SayMore\design\g3324.png"
       inkscape:export-xdpi="16.088352"
       inkscape:export-ydpi="16.088352" />
    <path
       style="fill:#b2b2b2"
       inkscape:connector-curvature="0"
       d="m 446.10531,326.53101 c 7.4822,3.05307 9.51702,10.54633 13.16275,15.91602 11.72141,23.53083 14.69946,49.51413 5.30961,73.65986 -6.33762,17.79649 -19.83951,34.03427 -36.41482,48.39873 -6.27403,2.77422 -15.25056,-2.71702 -16.31036,-6.71391 10.95836,-10.32467 21.4716,-21.12841 28.32852,-33.10475 15.5473,-28.51442 13.9788,-61.41897 -6.39061,-88.66068 -1.22937,-1.12971 -3.51854,-5.52699 -1.47312,-5.54129 10.02573,13.80675 18.04843,28.47867 19.90309,43.93708 -0.0318,2.03062 -0.29675,4.11844 0.36033,6.1276 0.24376,2.97442 0.23316,5.956 0.12718,8.93757 -0.30735,1.99487 -0.58289,4.01833 -0.73127,6.0275 -2.1514,23.18762 -17.64571,44.69499 -38.56621,62.75603 3.24299,2.46677 7.18546,5.22669 11.68962,6.3707 22.85994,-18.28269 37.80316,-41.16287 41.95758,-64.94395 1.54732,-1.80182 1.67449,-3.50353 0.36034,-5.09799 0.11657,-0.47905 0.33913,-1.44431 0.44511,-1.92337 0.98562,-4.59748 1.72748,-9.38802 0.22256,-13.96405 -0.21196,-0.85086 -0.41332,-1.70172 -0.60409,-2.54542 -0.15897,-1.12256 -0.4981,-3.37483 -0.65707,-4.49739 -0.11658,-0.89375 -0.23316,-1.78751 -0.33914,-2.68127 0.57229,-1.02246 0.60409,-2.22366 -0.62528,-3.03162 -3.43376,-13.74956 -9.19909,-27.33466 -19.75472,-39.4254 z"
       id="path3042"
       inkscape:export-filename="C:\Projects\SayMore\design\g3324.png"
       inkscape:export-xdpi="16.088352"
       inkscape:export-ydpi="16.088352" />
    <path
       style="fill:#b4b4b4"
       inkscape:connector-curvature="0"
       d="m 406.21434,338.9578 c 2.1514,-0.5434 3.87888,0.42901 5.08705,1.50866 25.7638,33.52661 20.82512,77.74255 -16.68129,106.42857 -5.8819,1.70886 -14.75245,-3.61793 -14.60408,-7.70776 29.02799,-23.43073 35.4292,-57.70809 18.48296,-85.79351 -1.6215,-3.05307 -4.97048,-5.89164 -3.80469,-9.33797 2.96744,-2.47392 7.21725,-3.93968 11.52005,-5.09799 z"
       id="path3044"
       inkscape:export-filename="C:\Projects\SayMore\design\g3324.png"
       inkscape:export-xdpi="16.088352"
       inkscape:export-ydpi="16.088352" />
    <path
       style="fill:#040404"
       inkscape:connector-curvature="0"
       d="m 395.74349,344.7279 c 4.02725,-1.81612 8.49962,-4.16134 13.48069,-4.38299 7.69417,11.00394 13.56547,22.93023 14.95381,35.13537 0.14837,1.02246 0.44512,3.06738 0.59349,4.08983 0.5299,3.58218 1.11279,7.28591 0.0636,10.86094 -0.66768,1.57301 -0.87964,3.16032 -0.61469,4.76908 -1.50491,18.8976 -13.87281,37.20174 -31.88945,51.5805 -3.99546,-2.02347 -7.86374,-4.15418 -11.41408,-6.52085 14.65707,-11.78329 24.21649,-26.1692 27.97879,-41.31302 0.58289,-0.86515 0.72067,-1.82326 0.5405,-2.75277 -0.0212,-0.93666 0.0636,-1.86616 0.25435,-2.79567 1.02801,-5.10514 1.27176,-10.31753 0.0848,-15.41552 -0.24376,-0.91521 -0.36034,-1.83041 -0.34974,-2.75277 0.19077,-0.94381 0.0636,-1.90191 -0.58289,-2.75277 -2.02422,-9.70978 -8.37244,-18.63304 -13.09916,-27.74936 z"
       id="path3046"
       inkscape:export-filename="C:\Projects\SayMore\design\g3324.png"
       inkscape:export-xdpi="16.088352"
       inkscape:export-ydpi="16.088352" />
    <path
       style="fill:#616161"
       inkscape:connector-curvature="0"
       d="m 507.97658,361.88088 c 1.92884,-0.1144 1.74867,2.12356 0.58289,2.73132 -0.66767,-0.84371 -0.82664,-1.80181 -0.58289,-2.73132 z"
       id="path3052"
       inkscape:export-filename="C:\Projects\SayMore\design\g3324.png"
       inkscape:export-xdpi="16.088352"
       inkscape:export-ydpi="16.088352" />
    <path
       style="fill:#595959"
       inkscape:connector-curvature="0"
       d="m 492.59885,364.61935 c 0.60408,0.85086 0.74186,1.80181 0.54049,2.73847 -1.97123,0.1144 -1.75927,-2.15932 -0.54049,-2.73847 z"
       id="path3054"
       inkscape:export-filename="C:\Projects\SayMore\design\g3324.png"
       inkscape:export-xdpi="16.088352"
       inkscape:export-ydpi="16.088352" />
    <path
       style="fill:#606060"
       inkscape:connector-curvature="0"
       d="m 465.86003,365.95641 c 1.22937,0.80796 1.19757,2.00916 0.62528,3.03162 -1.47313,-0.72215 -1.29296,-2.03776 -0.62528,-3.03162 z"
       id="path3056"
       inkscape:export-filename="C:\Projects\SayMore\design\g3324.png"
       inkscape:export-xdpi="16.088352"
       inkscape:export-ydpi="16.088352" />
    <path
       style="fill:#4d4d4d"
       inkscape:connector-curvature="0"
       d="m 509.03638,368.33738 c 2.32097,0.6149 1.6427,3.56788 0.48751,4.82628 -0.66767,-1.57301 -0.82664,-3.18177 -0.48751,-4.82628 z"
       id="path3058"
       inkscape:export-filename="C:\Projects\SayMore\design\g3324.png"
       inkscape:export-xdpi="16.088352"
       inkscape:export-ydpi="16.088352" />
    <path
       style="fill:#5c5c5c"
       inkscape:connector-curvature="0"
       d="m 493.64805,370.40374 c 0.15897,1.02246 0.46631,3.07453 0.61469,4.09699 -2.41635,-0.22166 -1.93944,-3.12458 -0.61469,-4.09699 z"
       id="path3060"
       inkscape:export-filename="C:\Projects\SayMore\design\g3324.png"
       inkscape:export-xdpi="16.088352"
       inkscape:export-ydpi="16.088352" />
    <path
       style="fill:#505050"
       inkscape:connector-curvature="0"
       d="m 466.82445,371.6693 c 0.15897,1.12256 0.4981,3.37483 0.65707,4.49739 -0.15897,-1.12256 -0.4981,-3.37483 -0.65707,-4.49739 z"
       id="path3062"
       inkscape:export-filename="C:\Projects\SayMore\design\g3324.png"
       inkscape:export-xdpi="16.088352"
       inkscape:export-ydpi="16.088352" />
    <path
       style="fill:#585858"
       inkscape:connector-curvature="0"
       d="m 408.84265,372.47726 c 0.64648,0.85086 0.77366,1.80896 0.58289,2.75277 -1.96063,0.1001 -1.76987,-2.15217 -0.58289,-2.75277 z"
       id="path3064"
       inkscape:export-filename="C:\Projects\SayMore\design\g3324.png"
       inkscape:export-xdpi="16.088352"
       inkscape:export-ydpi="16.088352" />
    <path
       style="fill:#646464"
       inkscape:connector-curvature="0"
       d="m 452.22037,374.42207 c 0.41332,2.03062 0.25435,4.06839 0.36033,6.1276 -0.65708,-2.00916 -0.39213,-4.09698 -0.36033,-6.1276 z"
       id="path3066"
       inkscape:export-filename="C:\Projects\SayMore\design\g3324.png"
       inkscape:export-xdpi="16.088352"
       inkscape:export-ydpi="16.088352" />
    <path
       style="fill:#555555"
       inkscape:connector-curvature="0"
       d="m 424.17799,375.48028 c 2.43755,0.19305 1.97124,3.12458 0.59349,4.08983 -0.14837,-1.02245 -0.44512,-3.06737 -0.59349,-4.08983 z"
       id="path3068"
       inkscape:export-filename="C:\Projects\SayMore\design\g3324.png"
       inkscape:export-xdpi="16.088352"
       inkscape:export-ydpi="16.088352" />
    <path
       style="fill:#848484"
       inkscape:connector-curvature="0"
       d="m 510.13858,376.78159 c 1.33535,3.02448 2.37396,12.01924 -0.0106,15.00797 -0.0848,-5.00504 -0.0636,-10.01008 0.0106,-15.00797 z"
       id="path3070"
       inkscape:export-filename="C:\Projects\SayMore\design\g3324.png"
       inkscape:export-xdpi="16.088352"
       inkscape:export-ydpi="16.088352" />
    <path
       style="fill:#2e2e2e"
       inkscape:connector-curvature="0"
       d="m 494.57008,377.2678 c 1.12339,5.10514 0.96442,10.31753 -0.0636,15.42981 -0.21196,-5.14088 -0.86904,-10.31037 0.0636,-15.42981 z"
       id="path3072"
       inkscape:export-filename="C:\Projects\SayMore\design\g3324.png"
       inkscape:export-xdpi="16.088352"
       inkscape:export-ydpi="16.088352" />
    <path
       style="fill:#4f4f4f"
       inkscape:connector-curvature="0"
       d="m 409.77528,377.9828 c 1.18697,5.09799 0.94322,10.31038 -0.0848,15.41552 -0.16957,-5.13374 -0.81605,-10.30323 0.0848,-15.41552 z"
       id="path3074"
       inkscape:export-filename="C:\Projects\SayMore\design\g3324.png"
       inkscape:export-xdpi="16.088352"
       inkscape:export-ydpi="16.088352" />
    <path
       style="fill:#858585"
       inkscape:connector-curvature="0"
       d="m 468.08561,378.71211 c 1.50492,4.57603 0.76306,9.36657 -0.22256,13.96405 -0.12717,-4.65468 -0.11657,-9.31652 0.22256,-13.96405 z"
       id="path3076"
       inkscape:export-filename="C:\Projects\SayMore\design\g3324.png"
       inkscape:export-xdpi="16.088352"
       inkscape:export-ydpi="16.088352" />
    <path
       style="fill:#646464"
       inkscape:connector-curvature="0"
       d="m 451.97661,395.51474 c 0.14838,-2.00917 0.42392,-4.03263 0.73127,-6.0275 -0.0318,2.02347 -0.43452,4.01118 -0.73127,6.0275 z"
       id="path3080"
       inkscape:export-filename="C:\Projects\SayMore\design\g3324.png"
       inkscape:export-xdpi="16.088352"
       inkscape:export-ydpi="16.088352" />
    <path
       style="fill:#4b4b4b"
       inkscape:connector-curvature="0"
       d="m 424.22038,395.20013 c -0.26495,-1.60876 -0.053,-3.19607 0.61469,-4.76908 1.02801,1.25126 1.83346,4.27573 -0.61469,4.76908 z"
       id="path3082"
       inkscape:export-filename="C:\Projects\SayMore\design\g3324.png"
       inkscape:export-xdpi="16.088352"
       inkscape:export-ydpi="16.088352" />
    <path
       style="fill:#484848"
       inkscape:connector-curvature="0"
       d="m 467.0576,399.69752 c -1.53671,-1.60161 -1.42013,-3.29618 0.36034,-5.09799 1.31415,1.59446 1.18698,3.29617 -0.36034,5.09799 z"
       id="path3086"
       inkscape:export-filename="C:\Projects\SayMore\design\g3324.png"
       inkscape:export-xdpi="16.088352"
       inkscape:export-ydpi="16.088352" />
    <path
       style="fill:#4d4d4d"
       inkscape:connector-curvature="0"
       d="m 509.00459,400.20517 c -0.26495,-1.60876 -0.053,-3.19607 0.61468,-4.76908 1.03861,1.25126 1.83346,4.27573 -0.61468,4.76908 z"
       id="path3088"
       inkscape:export-filename="C:\Projects\SayMore\design\g3324.png"
       inkscape:export-xdpi="16.088352"
       inkscape:export-ydpi="16.088352" />
    <path
       style="fill:#595959"
       inkscape:connector-curvature="0"
       d="m 408.89564,398.94676 c -1.22937,-0.59345 -1.45193,-2.86717 0.5405,-2.75277 0.18017,0.92951 0.0424,1.88762 -0.5405,2.75277 z"
       id="path3090"
       inkscape:export-filename="C:\Projects\SayMore\design\g3324.png"
       inkscape:export-xdpi="16.088352"
       inkscape:export-ydpi="16.088352" />
    <path
       style="fill:#626262"
       inkscape:connector-curvature="0"
       d="m 492.62004,406.08967 c -1.23997,-0.57916 -1.45193,-2.86002 0.5299,-2.74562 0.19077,0.9295 0.0424,1.88046 -0.5299,2.74562 z"
       id="path3094"
       inkscape:export-filename="C:\Projects\SayMore\design\g3324.png"
       inkscape:export-xdpi="16.088352"
       inkscape:export-ydpi="16.088352" />
    <g
       id="g3324"
       transform="translate(0,26)"
       inkscape:export-xdpi="16.088352"
       inkscape:export-ydpi="16.088352">
      <g
         transform="translate(-15.866589,-50.607179)"
         id="g3311">
        <path
           style="fill:#d0d0d0"
           inkscape:connector-curvature="0"
           d="m 192.6732,163.7854 c 46.9125,-16.2 103.575,-5.2375 140.2875,28.0625 -0.65,0 -1.95,0.0125 -2.6,0.025 -23.2125,-18.0875 -51.4,-29.4125 -80.775,-31.8125 -8.9125,-1.1875 -18.0125,-1.475 -26.9125,-0.075 -9.9375,1.825 -20.2,3.0125 -29.7,6.5625 -0.375,0.5875 -1.125,1.75 -1.4875,2.3375 -2.2125,85.4 -0.3125,171.025 -0.95,256.5125 0.65,27.5625 -1.275,55.45 0.8875,82.825 0.3375,0.6125 1,1.8375 1.325,2.45 0.6375,0.3125 1.9,0.9375 2.525,1.2625 27.1375,1.675 54.6375,1.525 81.7875,0.0625 0.6125,-0.325 1.8375,-0.9625 2.45,-1.2875 0.325,-0.35 1,-1.025 1.3375,-1.3625 3.0875,-13.6 -1.375,-28.5625 1.8125,-41.8875 17.2375,-1.1125 34.8125,11.55 52.9,9.1625 -1.075,3.075 -6.7625,2.15 -8.6375,2.2875 -14.0875,-3.7625 -28.1625,-7.6375 -42.3875,-10.875 -3.9125,12.925 0.0375,28.2875 -1.725,42.0875 -2.7125,3.025 -6.75,5.1375 -11.025,3.9875 -25,0.1 -50.0125,0.0375 -75.025,0.0375 -5.475,0.0125 -8.9625,-6.1625 -7.4375,-11.25 -0.125,-110.425 0.05,-220.8625 -0.075,-331.2875 -0.25,-3 1.275,-5.8375 3.425,-7.825 z"
           id="path3000" />
        <path
           style="fill:#717171"
           inkscape:connector-curvature="0"
           d="m 191.4857,168.8854 c 0.3625,-0.5875 1.1125,-1.75 1.4875,-2.3375 0.1875,55.8 -0.05,111.5875 0.1125,167.3875 -0.0625,43.9125 -0.1125,87.825 0.0125,131.75 -0.3125,14.9875 0.3625,30 -0.35,44.9875 -0.325,-0.6125 -0.9875,-1.8375 -1.325,-2.45 0.625,-113.1 0.55,-226.2375 0.0625,-339.3375 z"
           id="path3014" />
        <path
           style="fill:url(#linearGradient3339);fill-opacity:1"
           inkscape:connector-curvature="0"
           d="m 190.5357,425.3979 c 0.6375,-85.4875 -1.2625,-171.1125 0.95,-256.5125 0.4875,113.1 0.5625,226.2375 -0.0625,339.3375 -2.1625,-27.375 -0.2375,-55.2625 -0.8875,-82.825 z"
           id="path3018" />
        <path
           style="fill:#b0b0b0"
           inkscape:connector-curvature="0"
           d="m 330.3607,191.8729 c 0.65,-0.0125 1.95,-0.025 2.6,-0.025 16.8375,13.4875 31.8625,31.8375 38.1375,53.2 6.7375,19.6 4.8625,40.5125 0.675,60.375 6.7875,18.85 26.6625,33.2625 24.925,54.875 -3.7125,14 -21.575,9.2625 -32.125,10.2875 -5.075,7.2 5.2375,29.0375 -11.5375,26 -5.225,2.0125 -20.8375,-3.8 -21.2125,4.9 9.3,7.2625 21.05,12.375 27.975,22.2 5.075,13 -17.3375,12.9375 -14.1875,25.4625 -0.1125,9.2875 1.2625,23.875 -10.05,27.475 -18.0875,2.3875 -35.6625,-10.275 -52.9,-9.1625 -3.1875,13.325 1.275,28.2875 -1.8125,41.8875 -0.3,-14.95 -0.75,-29.9125 0.0125,-44.8375 0.5875,-0.1875 1.75,-0.575 2.3375,-0.775 13.6375,4.5 27.6375,7.875 41.65,11 6.7625,2.5 17.0125,-0.9 17.2375,-9.025 1.4125,-7.6375 0.9,-15.3875 0.725,-23.0875 3.3,-7.6625 17.5125,-7.9125 15.0125,-18.0875 -8,-9.525 -19.225,-15.1625 -29.2125,-22.225 -3.8875,-2.9 -0.1875,-6.0625 2.9375,-7.4125 1.7125,0.9125 4.0875,1.2 5.3375,-0.6 7.9,-2.5625 28.4375,6.725 23.3125,-8.5375 0,-4 0.075,-7.925 0.0875,-11.9 0.525,-2.5125 2.2125,-4.55 3.8,-6.475 2.4,1.375 5.2625,1.0625 7.75,0.075 11.0375,4.5 27.0875,-1.4 22.275,-15.65 -4.9125,-15.325 -15.35,-27.9625 -23.2,-41.775 -2.6875,-4.4 -1.45,-9.7875 0,-14.3625 9.9375,-39.3625 -9.8125,-79.7 -40.55,-103.8 z"
           id="path3024" />
        <path
           style="fill:#6e6e6e"
           inkscape:connector-curvature="0"
           d="m 364.0857,367.3854 c 1.95,-2.125 4.5375,-2.1 7.75,0.075 -2.4875,0.9875 -5.35,1.3 -7.75,-0.075 z"
           id="path3078" />
        <path
           style="fill:#404040"
           inkscape:connector-curvature="0"
           d="m 360.1982,385.7604 c -1.2875,-3.8625 -1.1,-7.9875 0.0875,-11.9 -0.0125,3.975 -0.0875,7.9 -0.0875,11.9 z"
           id="path3084" />
        <path
           style="fill:#525252"
           inkscape:connector-curvature="0"
           d="m 331.5482,394.8979 c 1.4875,-1.325 3.5625,-1.2125 5.3375,-0.6 -1.25,1.8 -3.625,1.5125 -5.3375,0.6 z"
           id="path3092" />
        <path
           style="fill:#4e4e4e"
           inkscape:connector-curvature="0"
           d="m 342.0857,465.7104 c -0.075,-7.6875 -1.2125,-15.6125 0.725,-23.0875 0.175,7.7 0.6875,15.45 -0.725,23.0875 z"
           id="path3096" />
        <path
           style="fill:#363636"
           inkscape:connector-curvature="0"
           d="m 279.4232,462.7229 c 1.275,0.25 2.5375,0.6 3.775,1.0125 -0.5875,0.2 -1.75,0.5875 -2.3375,0.775 -0.7625,14.925 -0.3125,29.8875 -0.0125,44.8375 -0.3375,0.3375 -1.0125,1.0125 -1.3375,1.3625 -0.3625,-16 -0.375,-32 -0.0875,-47.9875 z"
           id="path3098" />
        <path
           style="fill:#767676"
           inkscape:connector-curvature="0"
           d="m 192.7482,510.6729 c 28.9125,-0.4875 57.85,-0.45 86.7625,0.0375 -0.6125,0.325 -1.8375,0.9625 -2.45,1.2875 -27.25,-0.525 -54.525,-0.5875 -81.7875,-0.0625 -0.625,-0.325 -1.8875,-0.95 -2.525,-1.2625 z"
           id="path3100" />
        <path
           style="fill:#bbbbbb"
           inkscape:connector-curvature="0"
           d="m 195.2732,511.9354 c 27.2625,-0.525 54.5375,-0.4625 81.7875,0.0625 -27.15,1.4625 -54.65,1.6125 -81.7875,-0.0625 z"
           id="path3102" />
      </g>
      <path
         inkscape:connector-curvature="0"
         id="path3309"
         d="m 178.26831,286.69931 0.25096,-171.44563 7.44441,-1.76395 c 21.80092,-5.16573 35.75624,-5.86619 55.58495,-2.78997 33.89887,5.25905 62.11487,19.25264 83.44054,41.38194 9.88926,10.26192 15.76718,18.72974 21.69449,31.25342 9.14392,19.31998 11.47387,35.30968 8.11891,55.71752 -1.14623,6.97239 -2.08405,13.71184 -2.08405,14.97654 0,1.26472 3.85458,8.73666 8.56574,16.6043 10.65495,17.79376 15.05359,26.88487 15.85611,32.77134 0.55643,4.08148 0.31881,4.90989 -2.22165,7.74526 -3.77262,4.21055 -8.94398,5.41495 -16.82348,3.91818 -8.43872,-1.603 -10.69435,-0.80796 -13.36613,4.71121 -1.93039,3.98766 -2.13724,5.57827 -1.61168,12.39356 0.54134,7.01993 0.4101,7.92197 -1.28456,8.82892 -1.03812,0.55558 -7.30619,1.01016 -13.92906,1.01016 -12.4906,0 -15.08315,0.62411 -16.93037,4.07568 -1.46526,2.73786 -0.3608,3.86975 14.50187,14.86191 7.8559,5.8101 12.74225,10.16416 13.95794,12.43747 l 1.8705,3.49781 -3.55499,3.15977 c -1.95524,1.73787 -5.50502,4.74961 -7.88838,6.69274 l -4.33338,3.53297 -0.69177,13.51405 c -0.38046,7.43273 -0.99066,13.9977 -1.356,14.58883 -0.36534,0.59112 -2.05816,1.7956 -3.76183,2.6766 -4.40269,2.27672 -9.61498,1.49732 -34.35217,-5.13667 -17.42711,-4.67358 -21.35305,-5.43991 -22.0699,-4.30797 -0.47957,0.75728 -0.87879,11.53849 -0.88715,23.95826 l -0.0152,22.58138 -42.18781,0 -42.18782,0 0.25096,-171.44563 z"
         style="fill:#000000" />
    </g>
  </g>
</svg>
